<svg xmlns="http://www.w3.org/2000/svg" xmlns:xlink="http://www.w3.org/1999/xlink" viewBox="0 0 363.66 758.09"><defs><filter id="b" x="6.12" y="-8571.06" width="351.67" height="32766" filterUnits="userSpaceOnUse" color-interpolation-filters="sRGB"><feFlood flood-color="#fff" result="bg"/><feBlend in="SourceGraphic" in2="bg"/></filter><mask id="a" x="6.12" y="-8571.06" width="351.67" height="32766" maskUnits="userSpaceOnUse"><g style="filter:url(#b)"/></mask><linearGradient id="c" x1="57.62" y1="501.83" x2="306.29" y2="253.16" gradientUnits="userSpaceOnUse"><stop offset="0" stop-color="#fff"/><stop offset="0.54"/><stop offset="1" stop-color="#f1f1f1"/></linearGradient><filter id="e" x="104.44" y="-8571.06" width="153.26" height="32766" filterUnits="userSpaceOnUse" color-interpolation-filters="sRGB"><feFlood flood-color="#fff" result="bg"/><feBlend in="SourceGraphic" in2="bg"/></filter><mask id="d" x="104.44" y="-8571.06" width="153.26" height="32766" maskUnits="userSpaceOnUse"><g style="filter:url(#e)"/></mask><linearGradient id="f" x1="181.07" y1="252.78" x2="181.07" y2="501" gradientUnits="userSpaceOnUse"><stop offset="0" stop-color="#b3b3b3"/><stop offset="0.54"/><stop offset="1" stop-color="#b3b3b3"/></linearGradient><filter id="h" x="119.51" y="-8571.06" width="123.42" height="32766" filterUnits="userSpaceOnUse" color-interpolation-filters="sRGB"><feFlood flood-color="#fff" result="bg"/><feBlend in="SourceGraphic" in2="bg"/></filter><mask id="g" x="119.51" y="-8571.06" width="123.42" height="32766" maskUnits="userSpaceOnUse"><g style="filter:url(#h)"/></mask><linearGradient id="i" x1="181.22" y1="101.57" x2="181.22" y2="224.99" gradientUnits="userSpaceOnUse"><stop offset="0" stop-color="#fff"/><stop offset="0.28" stop-color="#bababa"/><stop offset="0.94" stop-color="#101010"/><stop offset="1"/></linearGradient><linearGradient id="l" x1="181.22" y1="101.57" x2="181.22" y2="224.99" gradientTransform="matrix(1, 0, 0, -1, 0, 754.99)" xlink:href="#i"/><radialGradient id="m" cx="1105.75" cy="537.32" r="55.16" gradientTransform="translate(-324.65 -820.71) rotate(39.75)" gradientUnits="userSpaceOnUse"><stop offset="0.06" stop-color="#191919"/><stop offset="0.22" stop-color="#1c1c1b"/><stop offset="0.35" stop-color="#272521"/><stop offset="0.48" stop-color="#39352b"/><stop offset="0.61" stop-color="#524a39"/><stop offset="0.73" stop-color="#73664c"/><stop offset="0.85" stop-color="#9b8962"/><stop offset="0.96" stop-color="#c9b07d"/><stop offset="1" stop-color="#dbc087"/></radialGradient><radialGradient id="n" cx="188.25" cy="305.58" r="50.58" gradientTransform="translate(479.01 95.17) rotate(85.74)" xlink:href="#m"/><radialGradient id="o" cx="1345.09" cy="489.19" r="55.16" gradientTransform="matrix(0.65, 0.76, -0.76, 0.65, -312.39, -1037.88)" xlink:href="#m"/><radialGradient id="p" cx="1466.02" cy="455.64" r="49.67" gradientTransform="matrix(-0.65, 0.76, -0.76, -0.65, 1494.63, -515.06)" xlink:href="#m"/><radialGradient id="q" cx="207.37" cy="303.5" r="54.97" gradientTransform="matrix(1, 0, 0, 1, 0, 0)" xlink:href="#m"/><radialGradient id="r" cx="1683.92" cy="350.33" r="51.05" gradientTransform="translate(1566.34 -747.96) rotate(130.24)" xlink:href="#m"/><radialGradient id="s" cx="219.13" cy="308.55" r="55.08" gradientTransform="matrix(1, 0, 0, 1, 0, 0)" xlink:href="#m"/><radialGradient id="t" cx="1883.04" cy="209.97" r="51.05" gradientTransform="matrix(-0.65, 0.76, -0.76, -0.65, 1598.57, -984.84)" xlink:href="#m"/><radialGradient id="u" cx="1969.92" cy="123.88" r="55.16" gradientTransform="translate(-67.06 -1635.82) rotate(77.75)" xlink:href="#m"/><radialGradient id="v" cx="2061.91" cy="45.76" r="45.33" gradientTransform="translate(1592.75 -1214.19) rotate(130.25)" xlink:href="#m"/><radialGradient id="w" cx="2128.31" cy="-60.02" r="55.16" gradientTransform="matrix(0.05, 1, -1, 0.05, 77.05, -1798.79)" xlink:href="#m"/><radialGradient id="x" cx="2199.28" cy="-157.96" r="51.05" gradientTransform="translate(1539.65 -1448.02) rotate(130.25)" xlink:href="#m"/><radialGradient id="y" cx="2253.99" cy="-268.88" r="55.16" gradientTransform="translate(244.89 -1935.87) rotate(96.74)" xlink:href="#m"/><radialGradient id="z" cx="2311.43" cy="-370.52" r="46.2" gradientTransform="matrix(-0.65, 0.76, -0.76, -0.65, 1450.08, -1658.09)" xlink:href="#m"/><radialGradient id="aa" cx="2344.28" cy="-495.4" r="55.16" gradientTransform="matrix(-0.28, 0.96, -0.96, -0.28, 433.52, -2043.96)" xlink:href="#m"/><radialGradient id="ab" cx="2392.07" cy="-593.18" r="36.87" gradientTransform="translate(1324.79 -1848.79) rotate(130.26)" xlink:href="#m"/><radialGradient id="ac" cx="2395.54" cy="-733.42" r="55.16" gradientTransform="translate(637.39 -2119) rotate(115.74)" xlink:href="#m"/><radialGradient id="ad" cx="2413.01" cy="-846.4" r="48.34" gradientTransform="translate(1162.78 -2023.05) rotate(130.25)" xlink:href="#m"/><radialGradient id="ae" cx="2406.85" cy="-975.5" r="55.16" gradientTransform="matrix(-0.58, 0.82, -0.82, -0.58, 851.57, -2158.63)" xlink:href="#m"/><radialGradient id="af" cx="2410.89" cy="-1082.16" r="40.82" gradientTransform="translate(973.11 -2162.34) rotate(130.28)" xlink:href="#m"/><radialGradient id="ag" cx="2378.09" cy="-1217.53" r="55.16" gradientTransform="matrix(-0.7, 0.71, -0.71, -0.7, 1068.68, -2163.45)" xlink:href="#m"/><radialGradient id="ah" cx="2352.4" cy="-1331.39" r="51.05" gradientTransform="matrix(-0.76, -0.65, 0.65, -0.76, 2909.2, 892.04)" xlink:href="#m"/><radialGradient id="ai" cx="2310" cy="-1451.51" r="55.16" gradientTransform="translate(1283.78 -2132.48) rotate(144.23)" xlink:href="#m"/><radialGradient id="aj" cx="2273.36" cy="-1549.61" r="42.41" gradientTransform="translate(2975.39 682.13) rotate(-139.75)" xlink:href="#m"/><radialGradient id="ak" cx="253.75" cy="407.6" r="55.03" gradientTransform="matrix(1, 0, 0, 1, 0, 0)" xlink:href="#m"/><radialGradient id="al" cx="2144.09" cy="-1764.49" r="47.61" gradientTransform="translate(3018.28 446.92) rotate(-139.75)" xlink:href="#m"/><radialGradient id="am" cx="2062.93" cy="-1869.31" r="55.16" gradientTransform="translate(1683.47 -1966.35) rotate(163.23)" xlink:href="#m"/><radialGradient id="an" cx="1984.79" cy="-1955.06" r="51.04" gradientTransform="translate(3017.66 210.93) rotate(-139.75)" xlink:href="#m"/><radialGradient id="ao" cx="1892.61" cy="-2041.76" r="55.16" gradientTransform="translate(1858.65 -1835.82) rotate(172.73)" xlink:href="#m"/><radialGradient id="ap" cx="1799.86" cy="-2112.14" r="51.05" gradientTransform="matrix(-0.76, -0.65, 0.65, -0.76, 2969.84, -19.83)" xlink:href="#m"/><radialGradient id="aq" cx="1694.88" cy="-2183.78" r="55.16" gradientTransform="matrix(-1, -0.04, 0.04, -1, 2008.72, -1678.58)" xlink:href="#m"/><radialGradient id="ar" cx="1596.87" cy="-2231.24" r="44.88" gradientTransform="translate(2877.86 -241.78) rotate(-139.75)" xlink:href="#m"/><radialGradient id="as" cx="1475.41" cy="-2291.21" r="55.16" gradientTransform="translate(2129.83 -1499.18) rotate(-168.28)" xlink:href="#m"/><radialGradient id="at" cx="1364.3" cy="-2326.81" r="51.05" gradientTransform="matrix(-0.76, -0.65, 0.65, -0.76, 2756.54, -452.15)" xlink:href="#m"/><radialGradient id="au" cx="1242.98" cy="-2361.16" r="55.16" gradientTransform="translate(2221.26 -1301.36) rotate(-158.78)" xlink:href="#m"/><radialGradient id="av" cx="1130.76" cy="-2374.19" r="47.99" gradientTransform="translate(2572.17 -688.54) rotate(-140.94)" xlink:href="#m"/><radialGradient id="aw" cx="1001.6" cy="-2392.13" r="55.16" gradientTransform="translate(2278.63 -1091.86) rotate(-149.28)" xlink:href="#m"/><radialGradient id="ax" cx="181.8" cy="453.99" r="54.6" gradientTransform="translate(633.27 266.01) rotate(89.22)" xlink:href="#m"/><radialGradient id="ay" cx="175.43" cy="305.26" r="50.8" gradientTransform="translate(23.05 -12.13) rotate(4.24)" xlink:href="#m"/><radialGradient id="az" cx="176.6" cy="445.75" r="49.05" gradientTransform="translate(604.25 228.98) rotate(84.73)" xlink:href="#m"/><radialGradient id="ba" cx="187.2" cy="446.24" r="49.41" gradientTransform="translate(42.19 -15.44) rotate(5.32)" xlink:href="#m"/><radialGradient id="bb" cx="5370.01" cy="-4182.6" r="55.16" gradientTransform="matrix(-0.65, 0.76, 0.76, 0.65, 6842.49, -1037.88)" xlink:href="#m"/><radialGradient id="bc" cx="161.61" cy="298.66" r="57.12" gradientTransform="translate(75.63 -29.86) rotate(13.75)" xlink:href="#m"/><radialGradient id="bd" cx="4771.95" cy="-4869.45" r="55.16" gradientTransform="matrix(-0.52, 0.85, 0.85, 0.52, 6794.41, -1250.26)" xlink:href="#m"/><radialGradient id="be" cx="152.51" cy="311.12" r="50.92" gradientTransform="translate(135.2 -34.94) rotate(23.25)" xlink:href="#m"/><radialGradient id="bf" cx="144.55" cy="308.55" r="55.08" gradientTransform="matrix(1, 0, 0, 1, 0, 0)" xlink:href="#m"/><radialGradient id="bg" cx="142.06" cy="316.68" r="51.01" gradientTransform="translate(193.88 -26.51) rotate(32.75)" xlink:href="#m"/><radialGradient id="bh" cx="133.78" cy="315.47" r="55.15" gradientTransform="matrix(1, 0, 0, 1, 0, 0)" xlink:href="#m"/><radialGradient id="bi" cx="138.1" cy="329.87" r="45.34" gradientTransform="translate(257.64 -7.17) rotate(42.25)" xlink:href="#m"/><radialGradient id="bj" cx="2424.94" cy="-6219.56" r="55.16" gradientTransform="matrix(-0.05, 1, 1, 0.05, 6453.04, -1798.79)" xlink:href="#m"/><radialGradient id="bk" cx="124.6" cy="332.54" r="51.04" gradientTransform="translate(308.57 28.8) rotate(51.74)" xlink:href="#m"/><radialGradient id="bl" cx="1530.07" cy="-6392.56" r="55.16" gradientTransform="matrix(0.12, 0.99, 0.99, -0.12, 6285.2, -1935.87)" xlink:href="#m"/><radialGradient id="bm" cx="124.07" cy="345.71" r="46.13" gradientTransform="translate(367.44 70.61) rotate(61.24)" xlink:href="#m"/><radialGradient id="bn" cx="619.58" cy="-6415.63" r="55.16" gradientTransform="matrix(0.28, 0.96, 0.96, -0.28, 6096.57, -2043.96)" xlink:href="#m"/><radialGradient id="bo" cx="132.18" cy="359.84" r="36.68" gradientTransform="translate(428.27 116.35) rotate(70.74)" xlink:href="#m"/><radialGradient id="bp" cx="-282.38" cy="-6287.81" r="55.16" gradientTransform="matrix(0.43, 0.9, 0.9, -0.43, 5892.7, -2119)" xlink:href="#m"/><radialGradient id="bq" cx="114.06" cy="365.33" r="48.01" gradientTransform="translate(454.76 190.97) rotate(80.24)" xlink:href="#m"/><radialGradient id="br" cx="-1150.64" cy="-6012.35" r="55.16" gradientTransform="matrix(0.58, 0.82, 0.82, -0.58, 5678.53, -2158.63)" xlink:href="#m"/><radialGradient id="bs" cx="123.82" cy="376.5" r="40.33" gradientTransform="translate(499.68 250.75) rotate(89.71)" xlink:href="#m"/><radialGradient id="bt" cx="-1961.82" cy="-5598.14" r="55.16" gradientTransform="matrix(0.7, 0.71, 0.71, -0.7, 5461.41, -2163.45)" xlink:href="#m"/><radialGradient id="bu" cx="110.17" cy="388.27" r="50.71" gradientTransform="translate(63.62 -12.63) rotate(9.22)" xlink:href="#m"/><radialGradient id="bv" cx="-2693.38" cy="-5055.75" r="55.16" gradientTransform="matrix(0.81, 0.58, 0.58, -0.81, 5246.31, -2132.48)" xlink:href="#m"/><radialGradient id="bw" cx="124.6" cy="395.84" r="42.22" gradientTransform="translate(133.63 -19.05) rotate(18.72)" xlink:href="#m"/><radialGradient id="bx" cx="6420.16" cy="407.6" r="55.03" gradientTransform="matrix(-1, 0, 0, 1, 6530.09, 0)" xlink:href="#m"/><radialGradient id="by" cx="122.02" cy="408.32" r="47.54" gradientTransform="translate(207.54 -9.17) rotate(28.22)" xlink:href="#m"/><radialGradient id="bz" cx="-3840.84" cy="-3648.77" r="55.16" gradientTransform="matrix(0.96, 0.29, 0.29, -0.96, 4846.63, -1966.35)" xlink:href="#m"/><radialGradient id="ca" cx="124.19" cy="420.54" r="51.04" gradientTransform="translate(283.3 11.94) rotate(37.73)" xlink:href="#m"/><radialGradient id="cb" cx="-4224.51" cy="-2822.51" r="55.16" gradientTransform="matrix(0.99, 0.13, 0.13, -0.99, 4671.44, -1835.82)" xlink:href="#m"/><radialGradient id="cc" cx="132.18" cy="429.27" r="51.05" gradientTransform="translate(357.46 40.69) rotate(47.22)" xlink:href="#m"/><radialGradient id="cd" cx="-4467.18" cy="-1944.5" r="55.16" gradientTransform="matrix(1, -0.04, -0.04, -1, 4521.37, -1678.58)" xlink:href="#m"/><radialGradient id="ce" cx="146.29" cy="429.27" r="44.84" gradientTransform="matrix(0.55, 0.84, -0.84, 0.55, 424.86, 71.4)" xlink:href="#m"/><radialGradient id="cf" cx="-4562.25" cy="-1038.92" r="55.16" gradientTransform="matrix(0.98, -0.2, -0.2, -0.98, 4400.26, -1499.18)" xlink:href="#m"/><radialGradient id="cg" cx="151.9" cy="442.22" r="50.92" gradientTransform="translate(495.42 125) rotate(66.24)" xlink:href="#m"/><radialGradient id="ch" cx="-4505.53" cy="-129.47" r="55.16" gradientTransform="matrix(0.93, -0.36, -0.36, -0.93, 4308.83, -1301.36)" xlink:href="#m"/><radialGradient id="ci" cx="165.51" cy="442.22" r="47.72" gradientTransform="translate(558.73 180.82) rotate(76.9)" xlink:href="#m"/><radialGradient id="cj" cx="-4299.66" cy="757.67" r="55.16" gradientTransform="matrix(0.86, -0.51, -0.51, -0.86, 4251.47, -1091.86)" xlink:href="#m"/><filter id="cl" x="6.12" y="201.66" width="351.67" height="351.67" filterUnits="userSpaceOnUse" color-interpolation-filters="sRGB"><feFlood flood-color="#fff" result="bg"/><feBlend in="SourceGraphic" in2="bg"/></filter><mask id="ck" x="6.12" y="201.66" width="351.67" height="351.67" maskUnits="userSpaceOnUse"><g style="mask:url(#a);filter:url(#cl)"><path d="M182,553.33a175.31,175.31,0,1,1,68.44-13.82A174.75,174.75,0,0,1,182,553.33Zm0-350.25a173.84,173.84,0,1,0,67.89,13.71A173.21,173.21,0,0,0,182,203.08Z" style="mix-blend-mode:multiply;fill:url(#c)"/></g></mask><linearGradient id="cm" x1="57.62" y1="501.83" x2="306.29" y2="253.16" gradientUnits="userSpaceOnUse"><stop offset="0" stop-color="#d7b676"/><stop offset="0.54"/><stop offset="1" stop-color="#c5a76e"/></linearGradient><linearGradient id="cn" x1="94.31" y1="376.89" x2="267.83" y2="376.89" gradientUnits="userSpaceOnUse"><stop offset="0" stop-color="#ab8d60"/><stop offset="0.07" stop-color="#b29466"/><stop offset="0.51" stop-color="#dbc087"/><stop offset="1" stop-color="#ab8d60"/></linearGradient><linearGradient id="co" x1="352.43" y1="381.64" x2="361.74" y2="372.33" xlink:href="#cn"/><linearGradient id="cp" x1="2" y1="381.79" x2="11.67" y2="372.13" xlink:href="#cn"/><filter id="cr" x="104.44" y="252.78" width="153.26" height="248.22" filterUnits="userSpaceOnUse" color-interpolation-filters="sRGB"><feFlood flood-color="#fff" result="bg"/><feBlend in="SourceGraphic" in2="bg"/></filter><mask id="cq" x="104.44" y="252.78" width="153.26" height="248.22" maskUnits="userSpaceOnUse"><g style="mask:url(#d);filter:url(#cr)"><path d="M181.07,501,104.44,376.89l.23-.37,76.4-123.74L257.7,376.89l-.23.38ZM106.12,376.89l74.95,121.39L256,376.89,181.07,255.5Z" style="mix-blend-mode:multiply;fill:url(#f)"/></g></mask><linearGradient id="cs" x1="181.07" y1="252.78" x2="181.07" y2="501" xlink:href="#cm"/><linearGradient id="ct" x1="1802.37" y1="-1384.25" x2="1820.86" y2="-1365.77" gradientTransform="translate(-128.41 2324.14) rotate(-45)" gradientUnits="userSpaceOnUse"><stop offset="0" stop-color="#d7b676"/><stop offset="0.04" stop-color="#cbac70"/><stop offset="0.22" stop-color="#8c7851"/><stop offset="0.4" stop-color="#5a4f39"/><stop offset="0.55" stop-color="#373228"/><stop offset="0.67" stop-color="#21201d"/><stop offset="0.75" stop-color="#191919"/></linearGradient><linearGradient id="cu" x1="1846.91" y1="-1430.88" x2="1846.91" y2="-1387.17" gradientTransform="translate(-128.41 2324.14) rotate(-45)" xlink:href="#cn"/><linearGradient id="cv" x1="1838.79" y1="-389.83" x2="1860.35" y2="-402.27" gradientTransform="translate(-1407.24 -1003.74) rotate(45)" xlink:href="#cn"/><linearGradient id="cw" x1="4361.03" y1="3985.82" x2="4379.52" y2="4004.31" gradientTransform="translate(6097.1 420.54) rotate(135)" xlink:href="#ct"/><linearGradient id="cx" x1="1341.78" y1="-925.75" x2="1341.78" y2="-882.03" gradientTransform="translate(-128.41 2324.14) rotate(-45)" xlink:href="#cn"/><linearGradient id="cy" x1="1332.13" y1="-895.72" x2="1353.68" y2="-908.16" gradientTransform="translate(1769.68 1046.4) rotate(-135)" xlink:href="#cn"/><filter id="da" x="119.51" y="101.57" width="123.42" height="123.42" filterUnits="userSpaceOnUse" color-interpolation-filters="sRGB"><feFlood flood-color="#fff" result="bg"/><feBlend in="SourceGraphic" in2="bg"/></filter><mask id="cz" x="119.51" y="101.57" width="123.42" height="123.42" maskUnits="userSpaceOnUse"><g style="mask:url(#g);filter:url(#da)"><path d="M181.22,225a61.71,61.71,0,1,1,61.71-61.71A61.78,61.78,0,0,1,181.22,225Zm0-121.42a59.71,59.71,0,1,0,59.71,59.71A59.78,59.78,0,0,0,181.22,103.57Z" style="mix-blend-mode:multiply;fill:url(#i)"/></g></mask><linearGradient id="db" x1="181.22" y1="101.57" x2="181.22" y2="224.99" gradientUnits="userSpaceOnUse"><stop offset="0" stop-color="#d7b676"/><stop offset="0.33" stop-color="#927c50"/><stop offset="1"/></linearGradient><filter id="dd" x="119.51" y="529.99" width="123.42" height="123.42" filterUnits="userSpaceOnUse" color-interpolation-filters="sRGB"><feFlood flood-color="#fff" result="bg"/><feBlend in="SourceGraphic" in2="bg"/></filter><mask id="dc" x="119.51" y="529.99" width="123.42" height="123.42" maskUnits="userSpaceOnUse"><g style="mask:url(#g);filter:url(#dd)"><path d="M181.22,653.42a61.72,61.72,0,1,1,61.71-61.72A61.78,61.78,0,0,1,181.22,653.42Zm0-121.43a59.72,59.72,0,1,0,59.71,59.71A59.78,59.78,0,0,0,181.22,532Z" style="mix-blend-mode:multiply;fill:url(#l)"/></g></mask><linearGradient id="de" x1="181.22" y1="101.57" x2="181.22" y2="224.99" gradientTransform="matrix(1, 0, 0, -1, 0, 754.99)" xlink:href="#db"/></defs><title>reverse-art</title><rect x="180.47" y="21.53" width="1.5" height="714.85" style="fill:#fff"/><path d="M182.13,376.81l-.25-19,1.43,0,.25,19Zm-.28-21.41,0-1.91h0l-.25-19,1.43,0,.27,20.94Zm-.3-23.32-.28-20.94,1.43,0,.25,19h0l0,1.9Zm-.31-23.32L181,287.82l1.43,0,.25,19h0l0,1.9Zm-.3-23.32-.27-20.94,1.43,0,.24,19h0l0,1.9Zm-.3-23.32-.28-20.94,1.43,0,.25,19h0l0,1.9Zm-.31-23.32,0-1.9h0l-.19-14.67,1.43,0,.21,16.57Z" style="fill:url(#m)"/><rect x="116.83" y="304.87" width="142.84" height="1.43" transform="translate(-130.46 470.63) rotate(-85.74)" style="fill:url(#n)"/><path d="M183.55,376.91l-1.41-.22,1.49-9.4,1.41.22Zm1.86-11.75-1.41-.22.3-1.88,1.41.22Zm.52-3.29-1.41-.22,1.49-9.4,1.41.22Zm1.86-11.75-1.41-.22.3-1.88,1.41.22Zm.52-3.29-1.41-.22,1.49-9.41,1.41.23Zm1.87-11.75-1.41-.23.29-1.88,1.41.23Zm.52-3.29-1.41-.23,1.49-9.4,1.41.23ZM192.56,320l-1.41-.23.3-1.88,1.41.22Zm.52-3.3-1.41-.22,1.49-9.4,1.41.22ZM194.94,305l-1.41-.22.3-1.88,1.41.22Zm.53-3.29-1.42-.22,1.49-9.4,1.41.22ZM197.33,290l-1.41-.22.29-1.88,1.41.22Zm.52-3.29-1.41-.22,1.49-9.41,1.41.23Zm1.86-11.75-1.41-.23.3-1.88L200,273Zm.52-3.29-1.41-.23,1.49-9.4,1.41.23Zm1.86-11.75-1.41-.23.3-1.88,1.41.22Zm.53-3.3-1.41-.22,1.48-9.4,1.42.22Zm1.86-11.75-1.41-.22.29-1.88,1.42.22Zm.52-3.29-1.41-.22,1.49-9.4,1.41.22Zm1.86-11.75-1.41-.22.3-1.88,1.41.22Zm.52-3.29-1.41-.22.36-2.28,1.41.23Z" style="fill:url(#o)"/><rect x="129.94" y="308.54" width="139.08" height="1.43" transform="translate(-148.32 429.53) rotate(-76.25)" style="fill:url(#p)"/><path d="M183.52,377l-1.35-.45,6-18.06,1.35.46Zm6.8-20.31-1.36-.45,6.65-19.86,1.35.45-6,18.05-.54-.18.54.18Zm7.4-22.12-1.36-.45L203,314.29l1.35.45-6,18.06-.68-.23.68.23Zm7.4-22.11-1.36-.46,6.65-19.86,1.35.46-6,18.05-.73-.24.73.24Zm7.4-22.12-1.36-.45,6.65-19.86,1.35.45-6,18.06-.76-.26.76.26Zm7.4-22.11-1.36-.46,6.65-19.86,1.35.46-6,18-.81-.27.81.27Zm7.4-22.12-1.36-.45L231.22,230l1.36.46-4.66,13.91-.68-.22.68.22Z" style="fill:url(#q)"/><rect x="139.68" y="310.41" width="142.97" height="1.43" transform="translate(-158.06 382.27) rotate(-66.74)" style="fill:url(#r)"/><path d="M183.47,377.14l-1.26-.67,8.94-16.81,1.26.67Zm10.06-18.91-1.26-.67.89-1.68.63.33-.63-.33,8.94-16.81,1.26.67Zm10.95-20.59-1.26-.67,9.83-18.49,1.26.67L205.37,336l-.48-.25.48.25ZM215.42,317l-1.26-.67.9-1.68.76.41-.76-.41L224,297.88l1.27.67Zm11-20.59-1.26-.67,9.83-18.49,1.26.67-8.93,16.81-.63-.33.63.33Zm10.95-20.59-1.26-.67.89-1.68,1.26.67-1.26-.67,8.94-16.81,1.26.67Zm11-20.59L247,254.6,254.79,240l1.26.67-6.89,13-.78-.42.78.42Z" style="fill:url(#s)"/><rect x="150.13" y="315.96" width="142.97" height="1.43" transform="translate(-164.61 331.77) rotate(-57.25)" style="fill:url(#t)"/><path d="M183.41,377.24l-1.13-.87,5.79-7.55,1.13.87Zm7.24-9.44-1.13-.87,1.16-1.51,1.13.87Zm2-2.65-1.13-.87,5.79-7.55,1.13.87Zm7.24-9.44-1.13-.87,1.16-1.51,1.13.87Zm2-2.64-1.13-.87,5.79-7.55,1.14.87Zm7.24-9.44-1.13-.87,1.16-1.51,1.13.87Zm2-2.64-1.13-.87,5.79-7.55,1.14.87Zm7.24-9.44-1.13-.87,1.16-1.51,1.13.87Zm2-2.65-1.13-.87,5.79-7.55,1.14.87Zm7.25-9.44-1.14-.87,1.16-1.51,1.13.87Zm2-2.64-1.13-.87,5.79-7.55,1.14.87Zm7.25-9.44-1.14-.87L237,305l1.14.87Zm2-2.64-1.13-.87,5.8-7.55,1.13.86Zm7.25-9.44-1.14-.87,1.16-1.51,1.14.87Zm2-2.65-1.13-.87,5.8-7.55,1.13.87Zm7.25-9.44-1.14-.87,1.16-1.51,1.14.87Zm2-2.64-1.14-.87,5.8-7.55,1.13.87Zm7.24-9.44-1.13-.87,1.15-1.51,1.14.87Zm2-2.64-1.14-.87,5.8-7.55,1.13.86Zm7.24-9.44-1.13-.87,1.16-1.51,1.13.87Zm2-2.65-1.14-.87,1.41-1.82,1.13.87Z" style="fill:url(#u)"/><rect x="162.17" y="329.15" width="126.81" height="1.43" transform="translate(-170.27 275.09) rotate(-47.76)" style="fill:url(#v)"/><path d="M183.33,377.33l-1-1.05,7-6.49,1,1Zm8.7-8.12-1-1,1.39-1.3,1,1Zm2.44-2.27-1-1.05,7-6.49,1,1Zm8.7-8.12-1-1,1.4-1.3,1,1Zm2.44-2.27-1-1,7-6.5,1,1.05Zm8.7-8.12-1-1,1.39-1.3,1,1Zm2.43-2.27-1-1,7-6.5,1,1.05Zm8.7-8.11-1-1.05,1.39-1.3,1,1.05Zm2.44-2.28-1-1,7-6.49,1,1Zm8.7-8.11-1-1.05,1.39-1.3,1,1.05Zm2.44-2.28-1-1,7-6.49,1,1Zm8.7-8.11-1-1,1.39-1.3,1,1Zm2.44-2.27-1-1.05,7-6.49,1,1Zm8.7-8.12-1-1,1.39-1.3,1,1Zm2.43-2.27-1-1.05,7-6.49,1,1.05Zm8.7-8.12-1-1,1.39-1.3,1,1Zm2.44-2.27-1-1,7-6.5,1,1.05Zm8.7-8.12-1-1,1.39-1.3,1,1.05Zm2.44-2.27-1-1,7-6.49,1,1Zm8.7-8.11-1-1.05,1.39-1.3,1,1.05Zm2.44-2.28-1-1,1.69-1.57,1,1Z" style="fill:url(#w)"/><rect x="167.59" y="331.83" width="142.97" height="1.43" transform="translate(-154.56 219.47) rotate(-38.26)" style="fill:url(#x)"/><path d="M183.24,377.4l-.79-1.19,15.87-10.51.79,1.19Zm17.86-11.83-.79-1.19,1.58-1.05.79,1.19Zm2.77-1.83-.79-1.19L219,352l.79,1.19Zm17.86-11.83-.79-1.19,1.59-1.05.79,1.19Zm2.78-1.84-.79-1.19,15.87-10.51.79,1.19Zm17.86-11.82-.79-1.19,1.59-1.05.78,1.19Zm2.77-1.84-.78-1.19,15.87-10.51.79,1.19ZM263,324.59l-.79-1.19,1.59-1.06.79,1.2Zm2.78-1.84-.79-1.19,15.88-10.51.78,1.19Zm17.86-11.83-.79-1.19,1.59-1.05.79,1.19Zm2.78-1.84-.79-1.19,15.87-10.51.79,1.19Zm17.85-11.82-.78-1.19,1.58-1.05.79,1.19Zm2.78-1.84-.79-1.19,5.1-3.37.79,1.19Z" style="fill:url(#y)"/><rect x="174.97" y="344.99" width="129.27" height="1.43" transform="translate(-136.75 157.88) rotate(-28.75)" style="fill:url(#z)"/><path d="M183.13,377.46l-.58-1.31,5.22-2.32.58,1.3Zm7.39-3.3-.58-1.3,7-3.1.58,1.3Zm9.13-4.06-.58-1.31,7-3.1.58,1.31-5.22,2.32-.3-.69.3.69Zm9.13-4.07-.58-1.31,7-3.09.58,1.3-5.22,2.32-.29-.65.29.65Zm9.13-4.07-.58-1.3,1.74-.78.29.66-.29-.66,5.22-2.32.58,1.3ZM227,357.9l-.58-1.31,7-3.1.58,1.31-5.22,2.32-.25-.58.25.58Zm9.13-4.07-.58-1.31,7-3.09.58,1.3-5.22,2.32-.29-.65.29.65Zm9.13-4.07-.58-1.3,1.74-.78L247,349l-.58-1.31,5.22-2.32.58,1.3Zm9.13-4.07-.58-1.3,1.74-.77.29.65-.29-.65,5.22-2.33.58,1.31Zm9.13-4.06-.58-1.31,7-3.09.58,1.3-5.22,2.32-.29-.65.29.65Zm9.13-4.07-.58-1.3,7-3.1.58,1.3-5.22,2.33-.29-.66.29.66Zm9.13-4.07-.58-1.3,1.74-.77.24.53-.24-.53,5.22-2.33.58,1.31Zm9.13-4.06-.58-1.31,7-3.1.58,1.31-5.22,2.32-.32-.72.32.72Zm9.13-4.07-.58-1.3,7-3.1.58,1.3-5.22,2.33-.29-.66.29.66Zm9.13-4.07-.58-1.3,1.74-.78.35.78-.35-.78,5.22-2.32.58,1.3Zm9.13-4.06-.58-1.31,1.74-.77.18.4-.18-.4,4.28-1.91.58,1.31Z" style="fill:url(#aa)"/><rect x="180.07" y="359.12" width="102.86" height="1.43" transform="translate(-105.79 96.57) rotate(-19.27)" style="fill:url(#ab)"/><path d="M183,377.49l-.36-1.38,9.22-2.38.36,1.38Zm11.52-3-.36-1.38,1.85-.48.35,1.39Zm3.23-.83-.36-1.38,9.21-2.39.36,1.38Zm11.51-3-.35-1.39,1.84-.47.36,1.38Zm3.23-.84-.36-1.38,9.22-2.39.36,1.39Zm11.52-3-.36-1.38,1.84-.48.36,1.38Zm3.22-.84-.35-1.38,9.21-2.38.36,1.38Zm11.52-3-.35-1.38,1.84-.48.36,1.39Zm3.23-.83-.36-1.38,9.22-2.39.35,1.38Zm11.52-3-.36-1.39,1.84-.47.36,1.38Zm3.22-.84-.36-1.38,9.22-2.39L266,356Zm11.52-3-.36-1.38,1.85-.48.35,1.38Zm3.23-.84-.36-1.38,9.21-2.38.36,1.38Zm11.52-3-.36-1.38,1.84-.48.36,1.39Zm3.22-.83-.36-1.38,9.22-2.39.36,1.38Zm11.52-3-.36-1.39,1.85-.47.35,1.38ZM301,347l-.36-1.38,9.21-2.39.36,1.39Zm11.51-3-.35-1.38,1.84-.48.36,1.38Zm3.23-.83-.36-1.39,9.22-2.38.36,1.38Zm11.52-3-.36-1.38,1.84-.48.36,1.39Zm3.22-.83-.35-1.38,2.22-.58.36,1.38Z" style="fill:url(#ac)"/><rect x="181.97" y="364.62" width="135.3" height="1.43" transform="translate(-58.35 47.64) rotate(-9.77)" style="fill:url(#ad)"/><path d="M182.91,377.51l-.13-1.42,19-1.66.12,1.42Zm21.33-1.87-.12-1.42L225,372.39l.12,1.42Zm23.23-2-.12-1.42,20.86-1.83.12,1.42Zm23.23-2-.12-1.42,20.86-1.83.13,1.42Zm23.24-2-.13-1.43,20.86-1.83.13,1.43Zm23.23-2-.13-1.42,20.87-1.84.12,1.43Zm23.23-2-.12-1.42,16.51-1.45.13,1.42-14.62,1.28-.07-.71.07.71Z" style="fill:url(#ae)"/><rect x="182.84" y="375.79" width="114.04" height="1.43" transform="translate(-1.95 1.25) rotate(-0.3)" style="fill:url(#af)"/><path d="M336.92,389.6l-16.53-1.3.11-1.42,1.9.15-.06.71.06-.71L337,388.18ZM318,388.12l-20.88-1.64.11-1.42,1.9.15-.06.71.06-.71,19,1.48Zm-23.25-1.83-20.88-1.63.11-1.43,1.9.15-.06.74.06-.74,19,1.49Zm-23.25-1.82-20.88-1.64.11-1.42,1.9.15-.06.71.06-.71,19,1.49Zm-23.25-1.82L227.39,381l.11-1.42,1.9.15-.06.71.06-.71,19,1.48ZM225,380.83l-20.88-1.64.11-1.42,1.9.14-.06.72.06-.72,19,1.49ZM201.77,379l-19-1.49.11-1.42,19,1.49Z" style="fill:url(#ag)"/><rect x="252.79" y="316.78" width="1.43" height="142.97" transform="translate(-170.4 576.21) rotate(-80.77)" style="fill:url(#ah)"/><path d="M332.69,414.85l-2.23-.56.35-1.38,2.23.55Zm-3.62-.9-1.84-.46.34-1.39,1.85.46Zm-4.15-1-9.24-2.3.35-1.38,9.23,2.3Zm-10.62-2.64-1.85-.46.34-1.39,1.85.46Zm-4.16-1-9.24-2.3.35-1.38,9.23,2.3Zm-10.62-2.64-1.85-.46.34-1.39,1.85.46Zm-4.16-1-9.24-2.3.35-1.38,9.24,2.3Zm-10.62-2.64-1.85-.46.35-1.39,1.84.46Zm-4.16-1-9.24-2.3.35-1.38,9.24,2.3ZM270,399.23l-1.85-.46.35-1.39,1.84.46Zm-4.16-1-9.23-2.3.34-1.38,9.24,2.3Zm-10.62-2.64-1.85-.46.35-1.39,1.84.46Zm-4.16-1-9.23-2.3.34-1.38,9.24,2.3Zm-10.62-2.64-1.85-.46.35-1.39,1.85.46Zm-4.16-1-9.23-2.3.34-1.38,9.24,2.3Zm-10.62-2.64-1.85-.46.35-1.39,1.85.46Zm-4.15-1-9.24-2.3.34-1.38,9.24,2.3Zm-10.63-2.64-1.84-.46.34-1.39,1.85.46Zm-4.15-1-9.24-2.3.34-1.39,9.24,2.3Zm-10.63-2.65-1.84-.46.34-1.39,1.85.47Zm-4.15-1-9.24-2.3.35-1.39,9.23,2.3Z" style="fill:url(#ai)"/><rect x="238.37" y="336.56" width="1.43" height="118.55" transform="translate(-212.56 495.15) rotate(-71.27)" style="fill:url(#aj)"/><path d="M324.36,439.05l-2.11-.91.57-1.31,2.11.91Zm-3.42-1.48-1.74-.76.56-1.31,1.75.76ZM317,435.86l-8.73-3.79.57-1.31,8.73,3.79Zm-10-4.36-1.74-.76.57-1.31,1.74.76ZM303,429.79,294.31,426l.57-1.31,8.73,3.79Zm-10-4.36-1.74-.76.57-1.31,1.74.76Zm-3.93-1.71-8.73-3.79.57-1.31,8.73,3.79Zm-10-4.36-1.74-.76.57-1.31,1.74.76Zm-3.92-1.7-8.74-3.8.57-1.31,8.73,3.8Zm-10.05-4.36-1.74-.76.57-1.31,1.74.76Zm-3.92-1.71-8.74-3.79.57-1.31,8.73,3.79Zm-10-4.36-1.75-.76.57-1.31,1.74.76Zm-3.93-1.71-8.73-3.79.56-1.31,8.74,3.79Zm-10-4.36-1.75-.76.57-1.31,1.74.76Zm-3.93-1.71-8.73-3.79.57-1.31,8.73,3.79Zm-10-4.36-1.75-.76L222,393l1.75.76Zm-3.93-1.7-8.73-3.8.57-1.31,8.73,3.8Zm-10-4.37-1.75-.75L208,387l1.75.75Zm-3.93-1.7-8.73-3.79.57-1.31,8.73,3.79Zm-10-4.36-1.75-.76.57-1.31,1.75.76Zm-3.93-1.71-8.73-3.79.57-1.31,8.73,3.79Z" style="fill:url(#ak)"/><rect x="240.94" y="341.68" width="1.43" height="133.27" transform="translate(-232.4 428.12) rotate(-61.77)" style="fill:url(#al)"/><path d="M312.15,461.55,307,458.23l.77-1.2,5.13,3.32Zm-6.32-4.1-1.6-1,.78-1.2,1.6,1Zm-3.6-2.33-16-10.37.78-1.19,16,10.36ZM285.07,444l-1.6-1,.78-1.2,1.59,1Zm-3.6-2.33-16-10.37.78-1.19,16,10.36ZM264.3,430.51l-1.59-1,.77-1.2,1.6,1Zm-3.59-2.33-16-10.37.78-1.19,16,10.36ZM243.54,417,242,416l.77-1.2,1.6,1ZM240,414.71l-16-10.37.78-1.19,16,10.36Zm-17.17-11.14-1.6-1,.78-1.2,1.6,1Zm-3.59-2.34-16-10.36.77-1.2L220,400ZM202,390.1l-1.6-1,.78-1.2,1.6,1Zm-3.6-2.34-16-10.36.78-1.2,16,10.37Z" style="fill:url(#am)"/><rect x="238.78" y="349.06" width="1.43" height="142.97" transform="translate(-239.68 352.65) rotate(-52.28)" style="fill:url(#an)"/><path d="M296.4,481.73l-1.7-1.56,1-1.05,1.7,1.55Zm-2.76-2.52-1.4-1.29,1-1.05,1.41,1.28Zm-3.16-2.9-7-6.42,1-1.06,7,6.43Zm-8.07-7.39-1.4-1.28,1-1.06,1.4,1.29ZM279.25,466l-7-6.43,1-1.05,7,6.43Zm-8.07-7.39-1.41-1.29,1-1.05,1.4,1.29ZM268,455.75l-7-6.43,1-1.05,7,6.42Zm-8.08-7.4-1.4-1.28,1-1.05,1.41,1.28Zm-3.16-2.89-7-6.43,1-1,7,6.43Zm-8.07-7.39-1.4-1.28,1-1.06,1.4,1.29Zm-3.16-2.89-7-6.43,1-1.05,7,6.42Zm-8.07-7.39-1.41-1.29,1-1.05,1.4,1.28Zm-3.16-2.9-7-6.42,1-1.06,7,6.43Zm-8.08-7.39-1.4-1.28,1-1.06,1.41,1.29Zm-3.16-2.89-7-6.43,1-1.05,7,6.43ZM215,407.22l-1.41-1.29,1-1.05,1.4,1.28Zm-3.16-2.89-7-6.43,1-1.06,7,6.43Zm-8.07-7.4-1.41-1.28,1-1.06,1.41,1.29ZM200.62,394l-7-6.43,1-1.05,7,6.43Zm-8.08-7.39-1.4-1.29,1-1.05,1.41,1.29Zm-3.16-2.89-7-6.43,1-1.05,7,6.42Z" style="fill:url(#ao)"/><rect x="230.78" y="357.79" width="1.43" height="142.97" transform="translate(-229.96 271.41) rotate(-42.78)" style="fill:url(#ap)"/><path d="M277.53,499l-3.77-4.81,1.13-.88,3.76,4.82Zm-4.65-5.93-1.17-1.5,1.12-.88,1.18,1.5Zm-2.64-3.38-11.73-15,1.13-.88,11.73,15Zm-12.61-16.12-1.17-1.5,1.13-.88,1.17,1.5ZM255,470.22l-11.73-15,1.12-.88,11.73,15ZM242.39,454.1l-1.17-1.5,1.12-.88,1.17,1.5Zm-2.64-3.38-11.73-15,1.13-.88,11.72,15ZM227.14,434.6,226,433.1l1.12-.88,1.18,1.5Zm-2.64-3.37-11.73-15,1.13-.88,11.73,15Zm-12.61-16.12-1.17-1.5,1.13-.88,1.17,1.5Zm-2.63-3.38-11.73-15,1.12-.88,11.73,15Zm-12.61-16.12-1.18-1.5,1.13-.88,1.17,1.5ZM194,392.24l-11.73-15,1.13-.88,11.72,15Z" style="fill:url(#aq)"/><rect x="216.67" y="366.51" width="1.43" height="125.53" transform="translate(-199.9 189.69) rotate(-33.28)" style="fill:url(#ar)"/><path d="M256.06,513l-1.1-2,1.25-.68,1.1,2Zm-1.78-3.27-.91-1.68,1.25-.68.91,1.67Zm-2.05-3.77-4.54-8.36,1.25-.68,4.55,8.36ZM247,496.32l-.91-1.68,1.26-.68.91,1.67Zm-2-3.77-4.55-8.36,1.26-.68,4.54,8.36Zm-5.23-9.62-.91-1.67,1.25-.68.91,1.67Zm-2-3.76-4.54-8.36,1.25-.68,4.55,8.36Zm-5.23-9.62-.9-1.67,1.25-.68.91,1.67Zm-2-3.76-4.55-8.36,1.26-.68,4.54,8.36Zm-5.23-9.62-.91-1.67,1.26-.68.9,1.67Zm-2.05-3.76-4.54-8.36,1.25-.68,4.55,8.36Zm-5.22-9.62-.91-1.67,1.25-.68.91,1.67Zm-2-3.76-4.55-8.36,1.26-.69,4.54,8.37Zm-5.23-9.62-.91-1.67,1.26-.68.91,1.67Zm-2-3.76L204,417.29l1.25-.69,4.55,8.37ZM203.36,416l-.91-1.67,1.25-.68.91,1.67Zm-2.05-3.76-4.55-8.36,1.26-.69,4.55,8.37Zm-5.23-9.62-.91-1.67,1.26-.68.91,1.67Zm-2-3.76-4.55-8.37,1.25-.68,4.55,8.37Zm-5.23-9.62-.91-1.67,1.25-.68.91,1.67Zm-2.05-3.76-4.54-8.37,1.25-.68,4.55,8.36Z" style="fill:url(#as)"/><rect x="211.06" y="370.73" width="1.43" height="142.97" transform="translate(-160.35 122.95) rotate(-23.78)" style="fill:url(#at)"/><path d="M232.59,523.19l-4.79-13.88.68-.23-.68.23-.62-1.8,1.35-.46,5.41,15.67Zm-6.19-17.93-6.83-19.79,1.35-.47.63,1.8-.63.22.63-.22,6.2,18Zm-7.6-22L212,463.42l1.35-.46.62,1.8-.49.16.49-.16,6.21,18Zm-7.61-22.05-6.83-19.8,1.35-.46.62,1.8-.67.23.67-.23,6.21,18Zm-7.6-22-6.83-19.8,1.35-.47.62,1.8-.56.19.56-.19,6.21,18ZM196,417.08l-6.21-18,.68-.23-.68.23-.62-1.8,1.35-.46,6.83,19.79ZM188.38,395l-6.21-18,1.35-.47,6.21,18Z" style="fill:url(#au)"/><rect x="197.45" y="375.06" width="1.43" height="134.33" transform="translate(-95.06 56.42) rotate(-13.1)" style="fill:url(#av)"/><path d="M207.75,529.39l-2.43-14.48h0L205,513l1.41-.24.32,1.88-.73.12.73-.12,2.43,14.47Zm-3.14-18.7-3.15-18.77h0l-.32-1.88,1.41-.24.31,1.88-.71.12.71-.12L206,510.45Zm-3.86-23L197.28,467l1.41-.24.31,1.88-.78.13.78-.13,3.15,18.78Zm-3.87-23-3.15-18.77.7-.12-.7.12-.32-1.88,1.41-.24,3.47,20.66Zm-3.86-23-3.15-18.77.71-.12-.71.12-.32-1.88,1.41-.23,3.47,20.65Zm-3.86-23L186,399.92l.64-.11-.64.11-.31-1.88,1.41-.23,3.46,20.65Zm-3.87-23-3.15-18.78,1.41-.24,3.15,18.78Z" style="fill:url(#aw)"/><rect x="104.61" y="453.28" width="154.39" height="1.43" transform="translate(-274.63 629.58) rotate(-89.22)" style="fill:url(#ax)"/><rect x="174.71" y="233.53" width="1.43" height="143.47" transform="translate(-22.09 13.81) rotate(-4.24)" style="fill:url(#ay)"/><rect x="107.36" y="445.03" width="138.47" height="1.43" transform="translate(-283.48 580.68) rotate(-84.73)" style="fill:url(#az)"/><rect x="186.48" y="376.5" width="1.43" height="139.47" transform="translate(-40.58 19.28) rotate(-5.32)" style="fill:url(#ba)"/><path d="M180.13,376.91l-1.49-9.4,1.41-.22,1.49,9.4Zm-1.86-11.75-.3-1.88,1.41-.22.3,1.88Zm-.52-3.29-1.49-9.4,1.41-.22,1.49,9.4Zm-1.87-11.75-.29-1.88L177,348l.29,1.88Zm-.52-3.29-1.49-9.4,1.41-.23,1.49,9.41Zm-1.86-11.75-.3-1.88,1.41-.23.3,1.88Zm-.52-3.29-1.49-9.4,1.41-.23,1.49,9.4ZM171.12,320l-.3-1.89,1.41-.22.3,1.88Zm-.52-3.3-1.49-9.4,1.41-.22,1.49,9.4ZM168.73,305l-.29-1.88,1.41-.22.29,1.88Zm-.52-3.29-1.49-9.4,1.41-.22,1.49,9.4ZM166.35,290l-.3-1.88,1.41-.22.3,1.88Zm-.52-3.29-1.49-9.4,1.41-.23,1.49,9.41ZM164,274.91l-.3-1.88,1.41-.23.3,1.88Zm-.52-3.29-1.49-9.4,1.41-.23,1.49,9.4Zm-1.87-11.75-.29-1.89,1.41-.22.29,1.88Zm-.52-3.3-1.49-9.4L161,247l1.49,9.4Zm-1.86-11.75-.3-1.88,1.41-.22.3,1.88Zm-.52-3.29-1.49-9.4,1.41-.22,1.49,9.4Zm-1.86-11.75-.3-1.88,1.41-.22.3,1.88Zm-.52-3.29-.36-2.27,1.41-.23.36,2.28Z" style="fill:url(#bb)"/><rect x="160.89" y="218.21" width="1.43" height="160.9" transform="translate(-66.37 46.98) rotate(-13.75)" style="fill:url(#bc)"/><path d="M180.16,377l-6-18,1.35-.46,6,18.06Zm-6.8-20.31-.6-1.81,1.35-.45.61,1.81Zm-1.06-3.16-6-18.05,1.36-.46,6,18.06Zm-6.79-20.31-.61-1.81,1.36-.45.6,1.81Zm-1.06-3.16-6-18,1.35-.46,6.05,18.06Zm-6.8-20.31-.6-1.81,1.35-.45.61,1.81Zm-1.05-3.16-6-18.05,1.35-.46,6,18.06Zm-6.8-20.31-.6-1.81,1.35-.45.61,1.81Zm-1.06-3.16-6-18,1.36-.46,6,18.06ZM142,262.84l-.61-1.81,1.36-.45.6,1.81Zm-1.06-3.16-6-18.05,1.35-.46,6,18.06Zm-6.8-20.31-.6-1.81,1.35-.45.61,1.81ZM133,236.21l-1.94-5.79,1.35-.46,1.94,5.8Z" style="fill:url(#bd)"/><rect x="151.8" y="239.63" width="1.43" height="142.97" transform="translate(-110.43 85.47) rotate(-23.25)" style="fill:url(#be)"/><path d="M180.2,377.14l-8.93-16.81,1.26-.67,8.94,16.81Zm-10-18.91-9.83-18.49,1.26-.67,8.94,16.81-.63.33.63-.33.89,1.68Zm-11-20.59-.89-1.69.47-.25-.47.25-8.94-16.8,1.26-.67L160.46,337ZM148.25,317l-9.83-18.49,1.26-.67,8.94,16.81-.76.41.76-.41.89,1.68Zm-10.94-20.59-.9-1.68.63-.33-.63.33L127.47,278l1.26-.67,9.84,18.49Zm-11-20.59-9.83-18.49,1.26-.67,8.93,16.81-1.26.67,1.26-.67.9,1.68Zm-11-20.59-.89-1.68.78-.42-.78.42-6.89-13,1.26-.67,7.78,14.64Z" style="fill:url(#bf)"/><rect x="141.35" y="245.19" width="1.43" height="142.97" transform="translate(-148.73 127.18) rotate(-32.75)" style="fill:url(#bg)"/><path d="M180.27,377.24l-11.59-15.11,1.13-.87,11.59,15.11Zm-13-17-12.75-16.62,1.14-.87,11.59,15.11-.73.55.73-.55,1.15,1.51ZM153,341.74l-1.16-1.51.59-.45-.59.45-11.59-15.1,1.13-.87,12.75,16.61Zm-14.2-18.5-1.16-1.51.57-.44-.57.44-11.59-15.11,1.13-.86L140,322.37Zm-14.2-18.5L111.9,288.12l1.13-.87,11.59,15.11-.57.43.57-.43,1.16,1.51Zm-14.19-18.51L97.7,269.62l1.13-.87,11.59,15.1-.56.44.56-.44,1.16,1.51Zm-14.2-18.5L86.16,254.58l1.13-.87,8.94,11.64-.41.32.41-.32,1.15,1.51Z" style="fill:url(#bh)"/><rect x="137.39" y="266.46" width="1.43" height="126.81" transform="translate(-185.9 178.52) rotate(-42.25)" style="fill:url(#bi)"/><path d="M180.35,377.33l-13.92-13,1-1,13.92,13Zm-15.66-14.61-1.4-1.3,1-1.05,1.39,1.3Zm-2.44-2.28-13.92-13,1-1,13.92,13Zm-15.66-14.6-1.4-1.3,1-1.05,1.39,1.3Zm-2.44-2.28-13.92-13,1-1.05,13.92,13ZM128.49,329l-1.39-1.3,1-1.05,1.39,1.3Zm-2.44-2.28-13.92-13,1-1.05,13.93,13Zm-15.66-14.6-1.39-1.3,1-1,1.39,1.3ZM108,309.8,94,296.82l1-1.05,13.92,13ZM92.29,295.19,90.9,293.9l1-1,1.4,1.3Zm-2.44-2.27-13.92-13,1-1.05,13.92,13ZM74.19,278.31,72.8,277l1-1,1.4,1.3ZM71.76,276l-4.47-4.17,1-1L72.73,275Z" style="fill:url(#bj)"/><rect x="123.88" y="261.05" width="1.43" height="142.97" transform="matrix(0.62, -0.79, 0.79, 0.62, -213.68, 224.47)" style="fill:url(#bk)"/><path d="M180.44,377.4l-15.87-10.51.79-1.19,15.87,10.51Zm-17.86-11.83L161,364.52l.78-1.19,1.59,1.05Zm-2.78-1.83-15.87-10.51.79-1.19,15.87,10.51ZM142,351.91l-1.59-1.05.79-1.19,1.58,1.05Zm-2.78-1.84L123.3,339.56l.78-1.19L140,348.88Zm-17.86-11.82-1.59-1.05.79-1.19,1.59,1.05Zm-2.78-1.84L102.66,325.9l.79-1.19,15.87,10.51Zm-17.86-11.82-1.58-1,.79-1.2,1.58,1.06Zm-2.77-1.84L82,312.24l.79-1.19,15.88,10.51ZM80,310.92l-1.59-1.05.79-1.19,1.59,1.05Zm-2.78-1.84L61.39,298.57l.79-1.19,15.87,10.51ZM59.4,297.26l-1.58-1.05L58.6,295l1.59,1.05Zm-2.78-1.84-5.09-3.37.79-1.19,5.09,3.37Z" style="fill:url(#bl)"/><rect x="123.36" y="281.07" width="1.43" height="129.27" transform="translate(-238.69 288.14) rotate(-61.24)" style="fill:url(#bm)"/><path d="M180.54,377.46l-8.69-3.88.58-1.3,8.7,3.87Zm-10.86-4.85-1.74-.77.58-1.31,1.74.78Zm-3.05-1.35-8.69-3.88.58-1.3,8.69,3.87Zm-10.87-4.84-1.74-.78.59-1.3,1.73.77Zm-3-1.36-8.7-3.87.59-1.31,8.69,3.88Zm-10.87-4.84-1.74-.78.58-1.3,1.74.77Zm-3-1.36-8.7-3.87.58-1.3,8.7,3.87ZM127.94,354l-1.74-.77.58-1.31,1.74.78Zm-3-1.35-8.69-3.88.58-1.3,8.7,3.87ZM114,347.82l-1.74-.77.58-1.3,1.74.77Zm-3-1.35-8.69-3.87.58-1.31,8.69,3.88Zm-10.87-4.84-1.74-.78.59-1.3,1.73.77Zm-3-1.36-8.69-3.87.58-1.31L97.65,339ZM86.2,335.43l-1.74-.77.58-1.31,1.74.78Zm-3-1.36-8.7-3.87.58-1.3,8.7,3.87Zm-10.87-4.84-1.74-.77.58-1.31,1.74.78Zm-3-1.35L60.55,324l.58-1.3,8.7,3.87ZM58.38,323l-1.74-.78.58-1.3,1.74.77Zm-3.05-1.36-8.69-3.87.58-1.31,8.69,3.88Zm-10.87-4.84-1.73-.78.58-1.3,1.74.77Zm-3-1.36-2.1-.93.58-1.31,2.1.94Z" style="fill:url(#bn)"/><rect x="131.47" y="308.41" width="1.43" height="102.86" transform="translate(-251.12 365.91) rotate(-70.74)" style="fill:url(#bo)"/><path d="M180.66,377.49l-18.43-4.77.35-1.38L181,376.11Zm-20.74-5.36-1.84-.48.18-.69-.18.69-18.43-4.77.36-1.38,20.27,5.24Zm-22.58-5.85L117.07,361l.36-1.39,18.43,4.77-.14.54.14-.54,1.84.48Zm-22.57-5.84-1.85-.48.18-.69-.18.69-18.43-4.77.36-1.38,20.28,5.25Zm-22.58-5.85-20.27-5.24.36-1.39,18.43,4.78-.11.42.11-.42,1.84.47Zm-22.58-5.84L49.34,343.5l.36-1.38,18.43,4.77-.12.46.12-.46,1.84.48ZM47,342.91,31,338.75l.36-1.38,14.21,3.68-.2.77.2-.77,1.84.47Z" style="fill:url(#bp)"/><rect x="113.35" y="297.68" width="1.43" height="135.3" transform="translate(-265.32 415.78) rotate(-80.24)" style="fill:url(#bq)"/><path d="M180.77,377.51l-19-1.66.12-1.42,19,1.66Zm-21.33-1.87-20.86-1.83.12-1.42,20.86,1.83Zm-23.24-2-20.86-1.83.13-1.42,20.86,1.83Zm-23.23-2-20.86-1.83.13-1.42,20.86,1.83Zm-23.23-2L68.88,367.7l.12-1.43,20.87,1.83Zm-23.23-2-20.86-1.83.12-1.43,20.86,1.84Zm-23.23-2-1.9-.17.06-.71-.06.71L26.76,364l.13-1.42L43.4,364Z" style="fill:url(#br)"/><rect x="123.11" y="319.48" width="1.43" height="114.04" transform="matrix(0.01, -1, 1, 0.01, -253.32, 498.39)" style="fill:url(#bs)"/><path d="M26.76,389.6l-.11-1.42L41.28,387l.06.71-.06-.71,1.9-.15.11,1.42Zm18.9-1.48-.11-1.43,19-1.48.06.71-.06-.71,1.9-.15.11,1.42Zm23.25-1.83-.11-1.42,19-1.49.06.74-.06-.74,1.9-.15.11,1.43Zm23.25-1.82-.11-1.42,19-1.49.06.71-.06-.71,1.9-.15.11,1.42Zm23.25-1.82-.11-1.43,19-1.48.06.71-.06-.71,1.9-.15.11,1.42Zm23.25-1.82-.11-1.43,19-1.49.05.72-.05-.72,1.9-.14.11,1.42ZM161.91,379l-.11-1.42,19-1.49.11,1.42Z" style="fill:url(#bt)"/><rect x="38.68" y="387.56" width="142.97" height="1.43" transform="translate(-60.77 22.66) rotate(-9.22)" style="fill:url(#bu)"/><path d="M31,414.85l-.34-1.39,16.09-4,.34,1.38-1.84.46-.18-.69.18.69Zm18.4-4.58L49,408.88l20.32-5.06.34,1.39-1.84.46-.18-.7.18.7ZM72,404.63l-.34-1.38L92,398.19l.34,1.38-1.84.46-.17-.67.17.67ZM94.64,399l-.34-1.39,20.32-5.06.34,1.39-1.84.46-.18-.69.18.69Zm22.63-5.64-.34-1.38,20.32-5.06.34,1.38-1.84.46-.18-.69.18.69Zm22.63-5.63-.34-1.39,20.32-5.06.34,1.39-1.84.46-.15-.6.15.6Zm22.63-5.63-.34-1.39,18.47-4.6.35,1.39Z" style="fill:url(#bv)"/><rect x="65.32" y="395.12" width="118.55" height="1.43" transform="translate(-120.44 60.92) rotate(-18.72)" style="fill:url(#bw)"/><path d="M39.31,439.05l-.56-1.31,2.11-.91.57,1.3Zm3.43-1.48-.57-1.31,1.74-.76.57,1.31Zm3.92-1.71-.56-1.31,8.73-3.79.57,1.31Zm10.05-4.36-.57-1.31,1.74-.76.57,1.31Zm3.92-1.71-.56-1.31,8.73-3.79.56,1.31Zm10-4.36-.56-1.31,1.74-.76.57,1.31Zm3.93-1.71L74,422.41l8.74-3.79.56,1.31Zm10-4.36-.57-1.31,1.75-.76.57,1.31Zm3.93-1.7L88,416.35l8.73-3.8.57,1.31Zm10-4.36L98,412l1.75-.76.57,1.31Zm3.93-1.71-.57-1.31,8.73-3.79.57,1.31Zm10-4.36-.57-1.31,1.75-.76.57,1.31Zm3.93-1.71-.57-1.31,8.73-3.79.57,1.31Zm10-4.36-.57-1.31,1.75-.76.57,1.31Zm3.93-1.71-.57-1.31,8.73-3.79.57,1.31Zm10-4.36-.57-1.31,1.75-.76.57,1.31Zm3.93-1.7-.57-1.31,8.73-3.8.57,1.31Zm10-4.37-.57-1.31,1.75-.75.57,1.31Zm3.93-1.7-.57-1.31,8.73-3.79.57,1.31Zm10-4.36-.57-1.31,1.75-.76.57,1.31Zm3.93-1.71-.57-1.31,8.73-3.79.57,1.31Z" style="fill:url(#bx)"/><rect x="55.39" y="407.6" width="133.27" height="1.43" transform="translate(-178.55 106.21) rotate(-28.22)" style="fill:url(#by)"/><path d="M51.53,461.55l-.78-1.2L55.87,457l.78,1.2Zm6.32-4.1-.78-1.2,1.6-1,.78,1.2Zm3.59-2.33-.77-1.2,16-10.36.77,1.19ZM78.61,444l-.78-1.2,1.6-1,.78,1.2Zm3.59-2.33-.77-1.2,16-10.36.78,1.19Zm17.17-11.14-.77-1.2,1.59-1,.78,1.2Zm3.6-2.33-.78-1.2,16-10.36.78,1.19ZM120.14,417l-.78-1.2,1.6-1,.77,1.2Zm3.59-2.33-.78-1.2,16-10.36.78,1.19Zm17.17-11.14-.78-1.2,1.6-1,.77,1.2Zm3.59-2.34-.78-1.19,16-10.37.78,1.2Zm17.17-11.13-.78-1.2,1.6-1,.78,1.2Zm3.59-2.34-.77-1.19,16-10.37.77,1.2Z" style="fill:url(#bz)"/><rect x="52.7" y="419.83" width="142.97" height="1.43" transform="matrix(0.79, -0.61, 0.61, 0.79, -231.37, 163.92)" style="fill:url(#ca)"/><path d="M67.28,481.73l-1-1.06,1.7-1.55,1,1.05ZM70,479.21l-1-1.06,1.4-1.28,1,1.05Zm3.16-2.9-1-1.05,7-6.43,1,1.06Zm8.08-7.39-1-1.05,1.41-1.29,1,1.06ZM84.43,466l-1-1,7-6.43,1,1.05Zm8.07-7.39-1-1.05,1.4-1.29,1,1.05Zm3.16-2.89-1-1.06,7-6.42,1,1.05Zm8.07-7.4-1-1.05,1.41-1.28,1,1.05Zm3.16-2.89-1-1,7-6.43,1,1Zm8.08-7.39L114,437l1.41-1.29,1,1.06Zm3.16-2.89-1-1.06,7-6.42,1,1.05Zm8.07-7.39-1-1.06,1.4-1.28,1,1.05Zm3.16-2.9-1-1.05,7-6.43,1,1.06Zm8.08-7.39-1-1.05,1.41-1.29,1,1.06Zm3.15-2.89-1-1.05,7-6.43,1,1.05Zm8.08-7.39-1-1.06,1.4-1.28,1,1.05Zm3.16-2.89-1-1.06,7-6.43,1,1.06Zm8.07-7.4-1-1.05,1.4-1.29,1,1.06Zm3.16-2.89-1-1.05,7-6.43,1,1.05Zm8.08-7.39-1-1,1.41-1.29,1,1.05Zm3.16-2.89-1-1.06,7-6.42,1,1.05Z" style="fill:url(#cb)"/><rect x="60.69" y="428.56" width="142.97" height="1.43" transform="translate(-272.66 234.71) rotate(-47.22)" style="fill:url(#cc)"/><path d="M86.15,499,85,498.15l9-11.57,1.12.88Zm9-11.56-1.12-.88,1.17-1.5,1.13.88Zm2.64-3.37-1.12-.88,11.73-15,1.12.88Zm11.73-15-1.12-.88,1.17-1.5,1.12.88Zm2.64-3.37-1.12-.88,12.9-16.5,1.12.88Zm14.37-18.37-1.13-.88,11.73-15,.69.54-.69-.54,1.17-1.5,1.13.88ZM140.93,429l-1.12-.88,11.73-15,1.12.88Zm11.73-15-1.12-.88,1.17-1.5,1.13.88Zm2.64-3.37-1.12-.88,11.73-15,1.12.88Zm11.73-15-1.12-.88,1.17-1.5,1.12.88Zm2.64-3.37-1.13-.88,11.73-15,1.13.88Z" style="fill:url(#cd)"/><rect x="83.52" y="428.56" width="125.53" height="1.43" transform="matrix(0.55, -0.84, 0.84, 0.55, -292.85, 315.98)" style="fill:url(#ce)"/><path d="M107.62,513l-1.26-.68,1.1-2,1.26.68Zm1.78-3.27-1.26-.69.91-1.67,1.26.68Zm2-3.77-1.25-.68,4.55-8.36,1.25.68Zm5.23-9.62-1.25-.68.91-1.67,1.25.68Zm2-3.76-1.25-.68,4.54-8.36,1.26.68Zm5.23-9.62-1.26-.68.91-1.67,1.26.68Zm2-3.76-1.25-.68,4.55-8.36,1.25.68Zm5.23-9.62-1.25-.68.91-1.67,1.25.68Zm2.05-3.76-1.26-.68,4.55-8.36,1.26.68Zm5.23-9.62-1.26-.68.91-1.67,1.26.68Zm2-3.76-1.25-.68,4.55-8.37,1.25.69Zm5.23-9.62-1.25-.68.91-1.67,1.25.68Zm2-3.76-1.26-.68,4.55-8.37,1.25.69Zm5.23-9.62-1.26-.68.91-1.67,1.26.68Zm2-3.76-1.25-.68,4.54-8.37,1.26.69Zm5.23-9.62-1.25-.68.91-1.67,1.25.68Zm2.05-3.76-1.26-.68,4.55-8.37,1.25.69Zm5.23-9.62-1.26-.68.91-1.67,1.25.68Zm2-3.76-1.25-.68,4.54-8.37,1.26.68Zm5.23-9.62-1.25-.68.9-1.67,1.26.68Zm2-3.76-1.26-.69,4.55-8.36,1.25.68Z" style="fill:url(#cf)"/><rect x="80.42" y="441.51" width="142.97" height="1.43" transform="translate(-314.04 403.05) rotate(-66.24)" style="fill:url(#cg)"/><path d="M131.09,523.19l-1.35-.47,5.41-15.67,1.35.46-.62,1.8-.68-.23.68.23Zm6.18-17.93-1.35-.46,6.21-18,.62.22-.62-.22.62-1.8,1.35.47Zm7.61-22-1.35-.47,6.21-18,.49.16-.49-.16.62-1.8,1.35.46Zm7.6-22.05-1.35-.46,6.21-18,.68.23-.68-.23.62-1.8,1.35.46Zm7.61-22-1.35-.47,6.21-18,.56.19-.56-.19.62-1.8,1.35.47Zm7.61-22.05-1.35-.47,6.83-19.79,1.34.46-.62,1.8-.67-.23.67.23ZM175.3,395l-1.35-.46,6.21-18,1.35.47Z" style="fill:url(#ch)"/><rect x="98.34" y="441.51" width="134.33" height="1.43" transform="translate(-302.71 503.23) rotate(-76.9)" style="fill:url(#ci)"/><path d="M155.93,529.39l-1.41-.24L157,514.68l.72.12-.72-.12.32-1.88,1.4.24Zm3.14-18.7-1.41-.24,3.47-20.65,1.41.24-.32,1.88-.7-.12.7.12Zm3.86-23-1.41-.23L165,466.8l1.41.24-.31,1.88-.71-.12.71.12Zm3.87-23-1.41-.23,3.15-18.78.72.12-.72-.12.32-1.88,1.4.24Zm3.86-23-1.41-.23,3.15-18.78.72.12-.72-.12.32-1.88,1.41.24Zm3.86-23-1.41-.23,3.47-20.65L178,398l-.31,1.88-.63-.11.63.11Zm3.87-23-1.41-.24,3.15-18.78,1.41.24Z" style="fill:url(#cj)"/><g style="mask:url(#ck)"><path d="M182,553.33a175.31,175.31,0,1,1,68.44-13.82A174.75,174.75,0,0,1,182,553.33Zm0-350.25a173.84,173.84,0,1,0,67.89,13.71A173.21,173.21,0,0,0,182,203.08Z" style="fill:url(#cm)"/></g><polygon points="181.07 237.73 95.15 376.89 181.07 516.05 266.99 376.89 181.07 237.73" style="fill:#191919"/><path d="M181.07,517.41,94.31,376.89l.23-.37,86.53-140.15,86.76,140.52-.23.38ZM96,376.89,181.07,514.7l85.08-137.81-85.08-137.8Z" style="fill:url(#cn)"/><circle cx="357.08" cy="376.98" r="6.58" style="fill:url(#co)"/><path d="M0,377a6.84,6.84,0,1,1,6.84,6.83A6.84,6.84,0,0,1,0,377Z" style="fill:url(#cp)"/><g style="mask:url(#cq)"><path d="M181.07,501,104.44,376.89l.23-.37,76.4-123.74L257.7,376.89l-.23.38ZM106.12,376.89l74.95,121.39L256,376.89,181.07,255.5Z" style="fill:url(#cs)"/></g><path d="M187.89,63.3a10.72,10.72,0,1,1-7.58-3.14A10.59,10.59,0,0,1,187.89,63.3Z" style="fill:#191919"/><path d="M180.31,57.8a13.09,13.09,0,1,0,9.24,3.84A13,13,0,0,0,180.31,57.8Zm0,23.78a10.7,10.7,0,1,1,7.57-3.13A10.59,10.59,0,0,1,180.31,81.58Z" style="fill:url(#ct)"/><circle cx="181.22" cy="21.87" r="20.87" transform="translate(91.67 180.92) rotate(-67.5)" style="fill:#191919"/><path d="M181.22,43.73a21.87,21.87,0,1,1,21.86-21.86A21.89,21.89,0,0,1,181.22,43.73Zm0-41.73a19.87,19.87,0,1,0,19.86,19.87A19.89,19.89,0,0,0,181.22,2Z" style="fill:url(#cu)"/><path d="M181.22,34.32a12.45,12.45,0,0,1-11.31-17.65,12.45,12.45,0,0,0,22.61,0,12.45,12.45,0,0,1-11.3,17.65Z" style="fill:url(#cv)"/><path d="M174.39,693.43a10.72,10.72,0,1,1,7.58,3.14A10.59,10.59,0,0,1,174.39,693.43Z" style="fill:#191919"/><path d="M182,698.93a13.09,13.09,0,1,0-9.24-3.84A13,13,0,0,0,182,698.93Zm0-23.78a10.7,10.7,0,1,1-7.57,3.13A10.59,10.59,0,0,1,182,675.15Z" style="fill:url(#cw)"/><circle cx="181.22" cy="736.22" r="20.87" transform="translate(-568.31 621.91) rotate(-67.5)" style="fill:#191919"/><path d="M181.22,758.09a21.87,21.87,0,1,1,21.86-21.87A21.89,21.89,0,0,1,181.22,758.09Zm0-41.73a19.87,19.87,0,1,0,19.86,19.86A19.89,19.89,0,0,0,181.22,716.36Z" style="fill:url(#cx)"/><path d="M181.76,724.33A12.44,12.44,0,0,1,193.07,742a12.45,12.45,0,0,0-22.61,0,12.44,12.44,0,0,1,11.3-17.64Z" style="fill:url(#cy)"/><g style="mask:url(#cz)"><path d="M181.22,225a61.71,61.71,0,1,1,61.71-61.71A61.78,61.78,0,0,1,181.22,225Zm0-121.42a59.71,59.71,0,1,0,59.71,59.71A59.78,59.78,0,0,0,181.22,103.57Z" style="fill:url(#db)"/></g><g style="mask:url(#dc)"><path d="M181.22,653.42a61.72,61.72,0,1,1,61.71-61.72A61.78,61.78,0,0,1,181.22,653.42Zm0-121.43a59.72,59.72,0,1,0,59.71,59.71A59.78,59.78,0,0,0,181.22,532Z" style="fill:url(#de)"/></g><polygon points="166.52 410.75 164.31 410.75 164.31 414.92 166.52 416.06 166.52 410.75" style="fill:#191919"/><polygon points="165.5 419.47 165.5 416.2 164.45 415.66 164.45 418.83 165.5 419.47" style="fill:#191919"/><polygon points="181.56 425.87 181.56 420.44 179.41 420.2 179.41 425.51 181.56 425.87" style="fill:#191919"/><polygon points="181.56 412.33 177.91 411.72 177.91 419.43 181.56 419.85 181.56 412.33" style="fill:#191919"/><polygon points="199.4 410.75 196.97 410.75 196.97 416.18 199.4 414.92 199.4 410.75" style="fill:#191919"/><polygon points="199.25 418.83 199.25 415.66 197.99 416.31 197.99 419.6 199.25 418.83" style="fill:#191919"/><polygon points="169.91 410.75 167.11 410.75 167.11 416.37 169.91 417.83 169.91 410.75" style="fill:#191919"/><polygon points="177.32 411.62 174.07 411.08 174.07 418.99 177.32 419.37 177.32 411.62" style="fill:#191919"/><polygon points="178.82 420.13 175.95 419.8 175.95 424.94 178.82 425.42 178.82 420.13" style="fill:#191919"/><polygon points="168.49 417.75 166.09 416.51 166.09 419.83 168.49 421.28 168.49 417.75" style="fill:#191919"/><polygon points="200.28 410.6 200.28 413.88 204.45 408.49 206.65 399.41 203.59 399.41 200.05 403.76 201.81 408.46 200.28 410.6" style="fill:#191919"/><polygon points="171.72 419.32 171.5 419.29 171.4 419.26 169.08 418.06 169.08 421.63 171.72 423.24 171.72 419.32" style="fill:#191919"/><polygon points="173.48 410.98 172.1 410.75 170.5 410.75 170.5 418.13 171.62 418.71 173.48 418.93 173.48 410.98" style="fill:#191919"/><polygon points="175.37 424.84 175.37 419.74 172.31 419.39 172.31 423.54 172.22 423.54 174 424.61 175.37 424.84" style="fill:#191919"/><polygon points="207.13 315.76 182 308.6 157.08 315.7 182.15 332.49 207.13 315.76" style="fill:#191919"/><polygon points="181.92 333.18 151.01 353.88 152.08 359.8 152 360.03 152 367.76 168.04 361.64 168.17 361.73 181.78 346.39 181.92 333.18" style="fill:#191919"/><polygon points="187.31 367.39 187.31 376.33 197.04 382.62 207.91 383.48 211.19 379.65 211.19 368.33 195.46 362.33 187.31 367.39" style="fill:#191919"/><polygon points="213.37 353.4 216.34 336.83 207.64 315.95 182.54 332.76 213.37 353.4" style="fill:#191919"/><polygon points="182.36 333.17 182.22 346.4 195.5 361.4 211.44 367.48 212.25 359.9 212.22 359.8 213.28 353.88 182.36 333.17" style="fill:#191919"/><polygon points="191.72 410.16 199.51 410.16 200.82 408.33 199.04 403.6 202.81 398.97 186.72 394.82 191.72 410.16" style="fill:#191919"/><polygon points="152.22 368.63 152.22 379.94 155.5 383.77 166.37 382.92 176.1 376.63 176.1 367.68 167.95 362.62 152.22 368.63" style="fill:#191919"/><polygon points="151.33 380.27 151.33 368.02 151.55 367.93 151.55 361.23 143.91 381.96 144.03 382.26 139.3 387.57 141.24 393.11 148.34 399.07 154.95 384.49 151.33 380.27" style="fill:#191919"/><polygon points="151.31 360.17 139.24 370.59 143.58 381.15 151.31 360.17" style="fill:#191919"/><polygon points="150.93 353.4 181.75 332.76 156.66 315.95 147.95 336.83 150.93 353.4" style="fill:#191919"/><polygon points="158.45 408.89 155.54 399.41 148.71 399.72 152.6 428.36 158.46 408.91 158.45 408.89" style="fill:#191919"/><polygon points="147.34 336.76 155.86 316.33 139.21 336.69 136.04 352.24 150.37 353.64 147.34 336.76" style="fill:#191919"/><polygon points="150.45 354.09 136.05 352.68 139.14 370.09 151.42 359.49 150.45 354.09" style="fill:#191919"/><polygon points="216.94 336.85 213.92 353.64 227.96 352.24 224.79 336.69 208.74 317.06 216.95 336.76 216.94 336.85" style="fill:#191919"/><polygon points="181.9 426.51 181.85 426.47 181.8 426.51 174.24 425.25 173.25 442.72 190.46 442.72 189.75 425.2 181.9 426.51" style="fill:#191919"/><polygon points="190.19 425.01 190.9 442.7 211.1 429.72 199.58 419.33 190.19 425.01" style="fill:#191919"/><polygon points="173.74 425.15 165.54 420.18 165.5 420.18 165.5 420.16 164.13 419.33 152.89 429.72 172.82 442.52 173.8 425.17 173.74 425.15" style="fill:#191919"/><polygon points="156.5 399.5 159.25 408.48 163.42 413.88 163.42 410.6 161.89 408.46 163.66 403.76 160.12 399.41 156.5 399.5" style="fill:#191919"/><polygon points="163.86 415.89 158.8 409.34 152.81 429.19 163.86 418.97 163.86 415.89" style="fill:#191919"/><polygon points="164.66 403.6 162.89 408.33 164.2 410.16 171.99 410.17 177.28 394.82 160.95 399.03 164.66 403.6" style="fill:#191919"/><polygon points="199.84 415.89 199.84 418.97 211.18 429.19 204.85 409.41 199.84 415.89" style="fill:#191919"/><polygon points="220.51 380.94 224.77 370.55 224.98 369.38 212.95 360.09 220.51 380.94" style="fill:#191919"/><polygon points="213.84 354.09 212.87 359.48 225.07 368.89 227.95 352.68 213.84 354.09" style="fill:#191919"/><polygon points="205.26 408.88 205.18 408.99 211.39 428.41 215.3 399.71 207.57 399.36 205.26 408.88" style="fill:#191919"/><path d="M181.63,394.25h0l-3.06-2.78a.21.21,0,0,1-.07-.21v0h-2.25l5.34,9.53Z" style="fill:#191919"/><polygon points="220.18 381.75 212.6 360.85 211.87 367.64 212.08 367.72 212.08 379.98 208.29 384.39 215.84 398.91 222.76 393.11 224.7 387.57 219.97 382.26 220.18 381.75" style="fill:#191919"/><polygon points="196.75 383.49 186.42 376.81 186.42 366.9 195.04 361.55 182 346.81 168.56 361.96 176.99 367.19 176.99 377.11 166.66 383.78 155.36 384.67 148.73 399.28 155.41 398.97 155.31 398.65 160.53 398.52 160.64 398.65 177.07 394.42 175.18 391.05 181.84 372.02 188.83 391.05 186.86 394.4 203.11 398.59 203.17 398.52 207.78 398.52 207.68 398.93 215.41 399.27 215.5 399.2 207.77 384.36 196.75 383.49" style="fill:#191919"/><polygon points="191.27 410.21 186.38 395.22 181.84 402.95 177.57 395.33 172.44 410.21 181.85 411.78 191.27 410.21" style="fill:#191919"/><polygon points="189.42 411.12 186.16 411.66 186.16 419.39 189.42 419.02 189.42 411.12" style="fill:#191919"/><polygon points="187.53 419.83 184.67 420.15 184.67 425.45 187.53 424.98 187.53 419.83" style="fill:#191919"/><polygon points="191.14 423.75 191.18 419.41 188.12 419.76 188.12 424.88 189.71 424.61 191.14 423.75" style="fill:#191919"/><polygon points="192.99 418.25 192.99 410.75 191.61 410.75 190.01 411.02 190.01 418.95 192.09 418.71 192.99 418.25" style="fill:#191919"/><polygon points="184.08 420.22 182.15 420.44 182.15 425.87 184.08 425.55 184.08 420.22" style="fill:#191919"/><polygon points="185.57 411.76 182.15 412.33 182.15 419.85 185.57 419.46 185.57 411.76" style="fill:#191919"/><polygon points="178.61 390.79 178.61 390.9 181.54 375.54 176.21 390.79 178.61 390.79" style="fill:#191919"/><polygon points="197.4 416.62 195 417.86 195 421.41 197.4 419.96 197.4 416.62" style="fill:#191919"/><path d="M185.45,391.23v0a.23.23,0,0,1-.07.21l-3.24,2.94-.08,0v6.35l5.63-9.58Z" style="fill:#191919"/><polygon points="182.74 377.03 185.37 390.79 187.79 390.79 182.74 377.03" style="fill:#191919"/><polygon points="179 391.22 182 393.95 185 391.22 182 375.52 179 391.22" style="fill:#191919"/><polygon points="194.41 418.17 192.31 419.26 192.21 419.29 191.76 419.35 191.74 423.39 194.41 421.77 194.41 418.17" style="fill:#191919"/><polygon points="196.38 410.75 193.58 410.75 193.58 417.94 196.38 416.48 196.38 410.75" style="fill:#191919"/><path d="M228.89,352.4l-3.28-16.1-17.26-21.11-26.23-7.48-.12,0-26.35,7.51L138.39,336.3l-3.29,16.1,3.26,18.36v0L143,382.08l-4.7,5.29,2.19,6.26,7.33,6.15L152,430.16l20.93,13.44h18.24l20.93-13.44,4.13-30.38,7.33-6.15,2.19-6.26-4.7-5.29,4.61-11.23Zm-4.1-15.71L228,352.24l-14,1.4,3-16.79v-.09l-8.21-19.69Zm-8.45.14-3,16.57-30.83-20.64L207.64,316Zm-4.09,23.07-.81,7.58L195.5,361.4l-13.28-15,.14-13.23,30.92,20.71-1.06,5.92Zm-1.06,8.43v11.32l-3.28,3.83L197,382.62l-9.73-6.29v-8.94l8.15-5.06ZM182,308.6l25.13,7.16-25,16.73L157.08,315.7Zm-14,53-16,6.12V360l.08-.23L151,353.88l30.91-20.7-.14,13.22-13.61,15.33Zm8.06,6v8.95l-9.73,6.29-10.87.85-3.28-3.83V368.63l15.73-6Zm5.65-34.92L150.93,353.4l-3-16.57,8.7-20.88Zm-42.54,3.93,16.65-20.36-8.52,20.43,3,16.88L136,352.24Zm-3.16,16,14.4,1.41,1,5.4-12.28,10.6Zm3.19,17.91,12.07-10.42-7.73,21Zm2,22.52-1.94-5.54,4.73-5.31-.12-.3,7.64-20.73v6.7l-.22.09v12.25l3.62,4.22-6.61,14.58Zm7.46,6.61,6.84-.31,2.91,9.48v0l-5.86,19.45ZM199,403.6l1.78,4.73-1.31,1.83h-7.79l-5-15.34,16.1,4.15Zm4.55-4.19h3.06l-2.2,9.08-4.17,5.39V410.6l1.53-2.14-1.76-4.7ZM197,416.18v-5.43h2.43v4.17Zm2.28-.52v3.18l-1.26.76v-3.29Zm-21.34,3.77v-7.71l3.65.61v7.52Zm3.65,1v5.43l-2.15-.36V420.2Zm-17.25-5.52v-4.17h2.21v5.31Zm1.19,1.28v3.27l-1.05-.63v-3.18Zm.59.31,2.4,1.24v3.53l-2.4-1.45Zm1-.14v-5.62h2.8v7.08Zm2,1.69,2.32,1.2.1,0,.22,0v3.92l-2.64-1.6Zm2.54.65-1.12-.58v-7.38h1.6l1.38.23v7.95Zm.69,4.83v-4.15l3.05.35v5.1l-1.37-.23-1.77-1.07Zm1.76-4.55v-7.91l3.26.54v7.75Zm1.88.81,2.87.33v5.29l-2.87-.48Zm-3.51-9.59,5.13-14.88,4.27,7.62,4.54-7.73,4.89,15-9.42,1.57Zm9.71,10.23,1.93-.22v5.33l-1.93.32Zm0-.59v-7.52l3.42-.57v7.7Zm2.52.3,2.86-.32V425l-2.86.47Zm1.49-.76v-7.73l3.26-.55V419Zm2,.37,3-.35,0,4.34-1.43.86-1.59.27ZM190,419V411l1.6-.27H193v7.49l-.9.47Zm1.76.39.44,0,.1,0,2.1-1.09v3.6l-2.67,1.62Zm1.81-1.4v-7.19h2.8v5.73Zm1.42-.08,2.4-1.24V420l-2.4,1.45Zm-12.93-17.05v-6.35l.08,0,3.24-2.94a.23.23,0,0,0,.07-.21v0h2.25Zm3.3-10L182.74,377l5,13.76Zm-.37.43L182,394l-3-2.73,3-15.7Zm-6.39-.32v-.11h-2.4l5.34-15.25Zm-.07.33v0a.21.21,0,0,0,.07.21l3.06,2.78h0v6.51l-5.34-9.53ZM172,410.17H164.2l-1.31-1.83,1.77-4.73L161,399l16.33-4.21Zm-8.33-6.41-1.77,4.7,1.53,2.14v3.28l-4.17-5.4-2.75-9,3.62-.09Zm-4.86,5.58,5.06,6.55V419l-11.05,10.22Zm14,33.18-19.93-12.8,11.24-10.39,1.37.83v0h0l8.2,5,.06,0Zm.43.2,1-17.47,7.56,1.26,0,0,.05,0,7.85-1.31.71,17.52Zm17.65,0L190.19,425l9.39-5.68,11.52,10.39ZM199.84,419v-3.08l5-6.48,6.33,19.78Zm11.55,9.44L205.18,409l.08-.11,2.31-9.52,7.73.35Zm4-29.14-7.73-.35.09-.4h-4.6l-.06.07-16.25-4.19,2-3.35-7-19-6.66,19,1.89,3.37-16.43,4.23-.11-.13-5.22.13.1.32-6.68.31,6.63-14.61,11.3-.89L177,377.11v-9.92L168.56,362,182,346.81l13,14.74-8.62,5.35v9.91l10.33,6.68,11,.86,7.73,14.85Zm9.29-11.7-1.94,5.54-6.92,5.8-7.55-14.52,3.79-4.41V367.72l-.21-.08.73-6.79,7.58,20.9-.21.51Zm.07-17-4.26,10.39L213,360.09l12,9.29Zm-11.9-11.07,1-5.39L228,352.68l-2.88,16.21Z" style="fill:#fff"/></svg>